<?xml version="1.0" encoding="utf-8"?>
<!-- Generator: Adobe Illustrator 24.0.3, SVG Export Plug-In . SVG Version: 6.00 Build 0)  -->
<svg version="1.1" id="Capa_1" xmlns="http://www.w3.org/2000/svg" xmlns:xlink="http://www.w3.org/1999/xlink" x="0px" y="0px"
	 viewBox="0 0 110.7 33.2" style="enable-background:new 0 0 110.7 33.2;" xml:space="preserve">
<style type="text/css">
	.st0{fill:#FFFFFF;}
	.st1{fill:#C63638;}
</style>
<g>
	<title>logo_big</title>
	<path class="st0" d="M51.3,8.1h-5.1v8.2c0,0.5-0.1,1-0.4,1.3c-0.4,0.4-0.9,0.6-1.4,0.6c-0.4,0-0.8-0.1-1.1-0.3v3.7
		c1,0.3,2.1,0.5,3.2,0.5c1.8,0,3-0.5,3.8-1.3c0.8-0.9,1.2-2,1.1-3.2L51.3,8.1L51.3,8.1z M98.2,21.8h11.7v-3.3h-6.7v-1.9h6.3v-3.3
		h-6.3v-1.9h6.5V8.1H98.2V21.8z M77.2,21.8h4.3L81.6,11h0.1l2.6,10.8h4.3L91.2,11l0,0l0.1,10.8h4.6V8.1h-7.5l-1.9,7.5l0,0l-1.7-7.5
		h-7.6V21.8z M69.9,21.8H75V8.1h-5.1V21.8z M52.3,21.8h5.1l0.8-3h4.3l0.9,3h5.3L64,8.1h-7L52.3,21.8z M60.6,11L60.6,11l1.5,4.5H59
		L60.6,11z"/>
	<path class="st1" d="M1.5,6.6h40.1v11.6l0,0c0,0.1,0,0.1,0,0.2l0,0c0,4.5-3.1,8.2-6.9,8.3H1.5V6.6z"/>
	<rect x="2.9" y="8.1" class="st0" width="5.5" height="17.3"/>
	<path class="st0" d="M34.7,8.1h5.6v10.1c0.1,1.9-0.6,3.7-1.8,5.2c-1,1.1-2.4,1.8-3.8,2V8.1z"/>
	<polygon class="st0" points="9.9,25.3 15.4,25.3 15.5,11.7 15.6,11.7 18.8,25.3 24.1,25.3 27.4,11.7 27.5,11.7 27.6,25.3 
		33.3,25.3 33.3,8 23.8,8 21.7,17.5 21.6,17.5 19.4,8 9.9,8 	"/>
	<path class="st0" d="M43.8,26.6h-0.6v-3.1h0.6V26.6z M44.6,23.5h0.7l1.2,2.1v-2.1h0.6v3.1h-0.7l-1.3-2.2v2.2h-0.5V23.5z M48.6,24v2
		h0.6c0.3,0,0.5-0.2,0.6-0.4c0.1-0.2,0.1-0.4,0.1-0.6s0-0.5-0.1-0.7S49.4,24,49.2,24H48.6z M49.3,23.5c0.2,0,0.3,0,0.5,0.1
		s0.4,0.2,0.5,0.4c0.2,0.3,0.3,0.6,0.3,1s-0.1,0.7-0.2,1c-0.2,0.4-0.6,0.6-1,0.6h-1.3v-3.1H49.3z M51.4,23.5h0.7v1.9
		c0,0.2,0,0.3,0.1,0.5c0.2,0.3,0.6,0.3,0.9,0.1l0.1-0.1c0.1-0.2,0.1-0.3,0.1-0.5v-1.9H54v1.9c0,0.3,0,0.5-0.2,0.8
		c-0.5,0.6-1.4,0.7-2,0.1l-0.1-0.1c-0.1-0.2-0.2-0.5-0.1-0.8v-1.9C51.6,23.5,51.4,23.5,51.4,23.5z M55.2,25.7c0,0.1,0,0.2,0.1,0.3
		c0.1,0.1,0.3,0.2,0.5,0.2c0.4,0,0.6-0.1,0.6-0.4c0-0.1-0.1-0.2-0.2-0.3c-0.1,0-0.2-0.1-0.4-0.1l-0.2-0.1c-0.2,0-0.5-0.1-0.7-0.2
		c-0.2-0.2-0.3-0.4-0.3-0.7c0-0.3,0.1-0.6,0.4-0.7c0.2-0.2,0.5-0.2,0.8-0.2s0.6,0.1,0.8,0.3c0.2,0.2,0.4,0.5,0.4,0.8h-0.6
		c0-0.3-0.2-0.5-0.6-0.5c-0.1,0-0.3,0-0.4,0.1c-0.1,0.1-0.2,0.2-0.2,0.3c0,0.1,0.1,0.2,0.1,0.2c0.1,0.1,0.3,0.1,0.4,0.1l0.5,0.1
		c0.2,0,0.4,0.1,0.5,0.2c0.2,0.2,0.3,0.4,0.3,0.6c0,0.3-0.1,0.6-0.4,0.7c-0.3,0.2-0.5,0.2-0.8,0.2s-0.6-0.1-0.9-0.2
		c-0.2-0.1-0.3-0.4-0.3-0.8L55.2,25.7z M60.1,23.5V24h-0.9v2.6h-0.6V24h-1v-0.5H60.1z M61.4,24.1v0.8h0.7c0.1,0,0.2,0,0.3-0.1
		s0.2-0.2,0.2-0.3c0-0.2-0.1-0.3-0.2-0.4c-0.1,0-0.2-0.1-0.3-0.1h-0.7V24.1z M62.2,23.5c0.2,0,0.3,0,0.5,0.1s0.4,0.3,0.5,0.5
		c0,0.1,0.1,0.2,0.1,0.3c0,0.2,0,0.3-0.1,0.4S63,25,62.8,25.1c0.1,0,0.3,0.2,0.3,0.3c0.1,0.1,0.1,0.3,0.1,0.4V26c0,0.1,0,0.2,0,0.3
		c0,0.1,0.1,0.1,0.1,0.2v0.1h-0.7v-0.2c0-0.1,0-0.2,0-0.3v-0.3c0-0.1,0-0.3-0.1-0.4s-0.2-0.1-0.4-0.1h-0.7v1.3h-0.6v-3.1
		C60.8,23.5,62.2,23.5,62.2,23.5z M64.6,26.6H64v-3.1h0.6V26.6z M66.4,25.4h0.8l-0.4-1.2L66.4,25.4z M66.4,23.5h0.7l1.1,3h-0.7
		l-0.2-0.6h-1.1L66,26.6h-0.7L66.4,23.5z M69.3,25.7c0,0.1,0,0.2,0.1,0.3c0.1,0.1,0.3,0.2,0.5,0.2c0.4,0,0.6-0.1,0.6-0.4
		c0-0.1-0.1-0.2-0.2-0.3c-0.1,0-0.2-0.1-0.4-0.1l-0.3-0.1c-0.2,0-0.5-0.1-0.7-0.2c-0.2-0.2-0.3-0.4-0.3-0.7c0-0.3,0.1-0.6,0.4-0.7
		c0.2-0.2,0.5-0.2,0.8-0.2s0.6,0.1,0.8,0.3c0.2,0.2,0.4,0.5,0.4,0.8h-0.6c0-0.3-0.2-0.5-0.6-0.5c-0.1,0-0.3,0-0.4,0.1
		s-0.2,0.2-0.2,0.3c0,0.1,0.1,0.2,0.1,0.2c0.1,0.1,0.3,0.1,0.4,0.1l0.5,0.1c0.2,0,0.4,0.1,0.5,0.2c0.2,0.2,0.3,0.4,0.3,0.6
		c0,0.3-0.1,0.6-0.4,0.7c-0.3,0.2-0.5,0.2-0.8,0.2s-0.6-0.1-0.9-0.2c-0.3-0.2-0.4-0.5-0.4-0.8L69.3,25.7z M75.2,23.5h0.9v3.1h-0.6
		V24L75,26.6h-0.6L73.8,24c0,0.1,0,0.1,0,0.2v2.4h-0.6v-3.1h0.9l0.6,2.4L75.2,23.5z M79.3,24.1h-1.6v0.6h1.5v0.5h-1.5V26h1.7v0.6
		h-2.3v-3.1h2.2C79.3,23.5,79.3,24.1,79.3,24.1z M82.4,23.5V24h-0.9v2.6h-0.7V24h-0.9v-0.5H82.4z M83.8,25.4h0.8l-0.4-1.2L83.8,25.4
		z M83.9,23.5h0.7l1.1,3.1H85L84.8,26h-1.1l-0.2,0.6h-0.7L83.9,23.5z M86.4,23.5H87V26h1.5v0.6h-2.2L86.4,23.5z M89.3,23.5h0.6v1.9
		c0,0.2,0,0.3,0.1,0.5c0.2,0.3,0.6,0.3,0.9,0.1l0.1-0.1c0.1-0.2,0.1-0.3,0.1-0.5v-1.9h0.7v1.9c0,0.3,0,0.5-0.1,0.8
		c-0.5,0.6-1.4,0.7-2,0.1l-0.1-0.1c-0.1-0.2-0.2-0.5-0.1-0.8L89.3,23.5z M93.3,24.1v0.8H94c0.1,0,0.2,0,0.3-0.1
		c0.1-0.1,0.2-0.2,0.2-0.3c0-0.2-0.1-0.3-0.2-0.4c-0.1,0-0.2-0.1-0.3-0.1h-0.7V24.1z M94.1,23.5c0.2,0,0.3,0,0.5,0.1
		s0.4,0.3,0.5,0.5c0,0.1,0.1,0.2,0.1,0.3c0,0.2,0,0.3-0.1,0.4s-0.2,0.2-0.4,0.3c0.1,0,0.3,0.2,0.3,0.3c0.1,0.1,0.1,0.3,0.1,0.4V26
		c0,0.1,0,0.2,0,0.3c0,0.1,0.1,0.1,0.1,0.2v0.1h-0.7v-0.2c0-0.1,0-0.2,0-0.3v-0.3c0-0.1,0-0.3-0.1-0.4s-0.2-0.1-0.4-0.1h-0.7v1.3
		h-0.7v-3.1C92.6,23.5,94.1,23.5,94.1,23.5z M98,24.5c0-0.2-0.2-0.4-0.4-0.4c-0.1,0-0.2-0.1-0.4-0.1c-0.3,0-0.5,0.1-0.7,0.4
		c-0.1,0.2-0.2,0.5-0.2,0.8s0.1,0.5,0.2,0.7s0.4,0.3,0.7,0.3c0.2,0,0.4-0.1,0.5-0.2s0.2-0.3,0.3-0.5h-0.7v-0.6h1.3v1.7h-0.4
		l-0.1-0.4c-0.1,0.1-0.2,0.2-0.3,0.3c-0.2,0.1-0.4,0.2-0.6,0.2c-0.4,0-0.7-0.1-1-0.4s-0.4-0.7-0.4-1.2c0-0.4,0.1-0.8,0.4-1.2
		c0.3-0.3,0.7-0.5,1.1-0.5c0.3,0,0.6,0.1,0.9,0.3c0.3,0.2,0.4,0.5,0.5,0.8L98,24.5z M100.1,26.6h-0.6v-3.1h0.6V26.6z M100.9,25.1
		c0-0.5,0.1-0.9,0.4-1.2c0.3-0.3,0.6-0.4,1-0.4s0.9,0.2,1.1,0.5c0.1,0.2,0.2,0.4,0.2,0.6h-0.7c0-0.1-0.1-0.2-0.2-0.3
		c-0.1-0.1-0.3-0.2-0.5-0.2c-0.3,0-0.5,0.1-0.6,0.4c-0.1,0.2-0.2,0.5-0.2,0.7s0,0.5,0.2,0.7c0.2,0.3,0.6,0.4,1,0.2
		c0.1,0,0.1-0.1,0.1-0.1c0.1-0.1,0.1-0.2,0.2-0.4h0.6c0,0.3-0.2,0.6-0.4,0.8c-0.2,0.2-0.6,0.3-0.9,0.3c-0.4,0-0.8-0.2-1.1-0.5
		C101,25.9,100.8,25.5,100.9,25.1 M105.2,25.4h0.8l-0.4-1.2L105.2,25.4z M105.2,23.5h0.7l1.1,3.1h-0.7l-0.2-0.6H105l-0.2,0.6h-0.7
		L105.2,23.5z M108.2,25.7c0,0.1,0,0.2,0.1,0.3c0.1,0.1,0.3,0.2,0.5,0.2c0.4,0,0.6-0.1,0.6-0.4c0-0.1-0.1-0.2-0.2-0.3
		c-0.1,0-0.2-0.1-0.3-0.1l-0.3-0.1c-0.2,0-0.5-0.1-0.7-0.2c-0.2-0.2-0.3-0.4-0.3-0.7c0-0.3,0.1-0.6,0.4-0.7c0.2-0.2,0.5-0.2,0.8-0.2
		s0.6,0.1,0.8,0.3c0.2,0.2,0.4,0.5,0.4,0.8h-0.6c0-0.3-0.2-0.5-0.6-0.5c-0.1,0-0.3,0-0.4,0.1s-0.2,0.2-0.2,0.3
		c0,0.1,0.1,0.2,0.1,0.2c0.1,0.1,0.3,0.1,0.4,0.1l0.5,0.1c0.2,0,0.4,0.1,0.5,0.2c0.2,0.2,0.3,0.4,0.3,0.6c0,0.3-0.1,0.6-0.4,0.7
		c-0.3,0.2-0.5,0.2-0.8,0.2s-0.6-0.1-0.9-0.2c-0.3-0.2-0.4-0.5-0.4-0.8L108.2,25.7z"/>
</g>
</svg>
